<svg width="358" height="67" viewBox="0 0 358 67" fill="none" xmlns="http://www.w3.org/2000/svg">
<path d="M89.08 19.2C92.04 19.2 94.6267 19.7733 96.84 20.92C99.08 22.04 100.8 23.6667 102 25.8C103.227 27.9067 103.84 30.3733 103.84 33.2C103.84 36.0267 103.227 38.48 102 40.56C100.8 42.64 99.08 44.24 96.84 45.36C94.6267 46.4533 92.04 47 89.08 47H80V19.2H89.08ZM89.08 43.28C92.3333 43.28 94.8267 42.4 96.56 40.64C98.2933 38.88 99.16 36.4 99.16 33.2C99.16 29.9733 98.2933 27.4533 96.56 25.64C94.8267 23.8267 92.3333 22.92 89.08 22.92H84.56V43.28H89.08ZM117.919 47.36C115.839 47.36 113.959 46.8933 112.279 45.96C110.599 45 109.279 43.6667 108.319 41.96C107.359 40.2267 106.879 38.2267 106.879 35.96C106.879 33.72 107.373 31.7333 108.359 30C109.346 28.2667 110.693 26.9333 112.399 26C114.106 25.0667 116.013 24.6 118.119 24.6C120.226 24.6 122.133 25.0667 123.839 26C125.546 26.9333 126.893 28.2667 127.879 30C128.866 31.7333 129.359 33.72 129.359 35.96C129.359 38.2 128.853 40.1867 127.839 41.92C126.826 43.6533 125.439 45 123.679 45.96C121.946 46.8933 120.026 47.36 117.919 47.36ZM117.919 43.4C119.093 43.4 120.186 43.12 121.199 42.56C122.239 42 123.079 41.16 123.719 40.04C124.359 38.92 124.679 37.56 124.679 35.96C124.679 34.36 124.373 33.0133 123.759 31.92C123.146 30.8 122.333 29.96 121.319 29.4C120.306 28.84 119.213 28.56 118.039 28.56C116.866 28.56 115.773 28.84 114.759 29.4C113.773 29.96 112.986 30.8 112.399 31.92C111.813 33.0133 111.519 34.36 111.519 35.96C111.519 38.3333 112.119 40.1733 113.319 41.48C114.546 42.76 116.079 43.4 117.919 43.4ZM132.347 33.04C132.347 30.32 132.974 27.88 134.227 25.72C135.507 23.56 137.227 21.88 139.387 20.68C141.574 19.4533 143.961 18.84 146.547 18.84C149.507 18.84 152.134 19.5733 154.427 21.04C156.747 22.48 158.427 24.5333 159.467 27.2H153.987C153.267 25.7333 152.267 24.64 150.987 23.92C149.707 23.2 148.227 22.84 146.547 22.84C144.707 22.84 143.067 23.2533 141.627 24.08C140.187 24.9067 139.054 26.0933 138.227 27.64C137.427 29.1867 137.027 30.9867 137.027 33.04C137.027 35.0933 137.427 36.8933 138.227 38.44C139.054 39.9867 140.187 41.1867 141.627 42.04C143.067 42.8667 144.707 43.28 146.547 43.28C148.227 43.28 149.707 42.92 150.987 42.2C152.267 41.48 153.267 40.3867 153.987 38.92H159.467C158.427 41.5867 156.747 43.64 154.427 45.08C152.134 46.52 149.507 47.24 146.547 47.24C143.934 47.24 141.547 46.64 139.387 45.44C137.227 44.2133 135.507 42.52 134.227 40.36C132.974 38.2 132.347 35.76 132.347 33.04ZM176.205 24.6C177.885 24.6 179.378 24.96 180.685 25.68C182.018 26.4 183.058 27.4667 183.805 28.88C184.578 30.2933 184.965 32 184.965 34V47H180.445V34.68C180.445 32.7067 179.951 31.2 178.965 30.16C177.978 29.0933 176.631 28.56 174.925 28.56C173.218 28.56 171.858 29.0933 170.845 30.16C169.858 31.2 169.365 32.7067 169.365 34.68V47H164.805V17.4H169.365V27.52C170.138 26.5867 171.111 25.8667 172.285 25.36C173.485 24.8533 174.791 24.6 176.205 24.6ZM189.261 35.88C189.261 33.6667 189.715 31.7067 190.621 30C191.555 28.2933 192.808 26.9733 194.381 26.04C195.981 25.08 197.741 24.6 199.661 24.6C201.395 24.6 202.901 24.9467 204.181 25.64C205.488 26.3067 206.528 27.1467 207.301 28.16V24.96H211.901V47H207.301V43.72C206.528 44.76 205.475 45.6267 204.141 46.32C202.808 47.0133 201.288 47.36 199.581 47.36C197.688 47.36 195.955 46.88 194.381 45.92C192.808 44.9333 191.555 43.5733 190.621 41.84C189.715 40.08 189.261 38.0933 189.261 35.88ZM207.301 35.96C207.301 34.44 206.981 33.12 206.341 32C205.728 30.88 204.915 30.0267 203.901 29.44C202.888 28.8533 201.795 28.56 200.621 28.56C199.448 28.56 198.355 28.8533 197.341 29.44C196.328 30 195.501 30.84 194.861 31.96C194.248 33.0533 193.941 34.36 193.941 35.88C193.941 37.4 194.248 38.7333 194.861 39.88C195.501 41.0267 196.328 41.9067 197.341 42.52C198.381 43.1067 199.475 43.4 200.621 43.4C201.795 43.4 202.888 43.1067 203.901 42.52C204.915 41.9333 205.728 41.08 206.341 39.96C206.981 38.8133 207.301 37.48 207.301 35.96ZM222.451 28.16C223.117 27.04 223.997 26.1733 225.091 25.56C226.211 24.92 227.531 24.6 229.051 24.6V29.32H227.891C226.104 29.32 224.744 29.7733 223.811 30.68C222.904 31.5867 222.451 33.16 222.451 35.4V47H217.891V24.96H222.451V28.16ZM242.122 24.6C243.829 24.6 245.336 24.9467 246.642 25.64C247.976 26.3067 249.016 27.1467 249.762 28.16V24.96H254.362V47.36C254.362 49.3867 253.936 51.1867 253.082 52.76C252.229 54.36 250.989 55.6133 249.362 56.52C247.762 57.4267 245.842 57.88 243.602 57.88C240.616 57.88 238.136 57.1733 236.162 55.76C234.189 54.3733 233.069 52.48 232.802 50.08H237.322C237.669 51.2267 238.402 52.1467 239.522 52.84C240.669 53.56 242.029 53.92 243.602 53.92C245.442 53.92 246.922 53.36 248.042 52.24C249.189 51.12 249.762 49.4933 249.762 47.36V43.68C248.989 44.72 247.936 45.6 246.602 46.32C245.296 47.0133 243.802 47.36 242.122 47.36C240.202 47.36 238.442 46.88 236.842 45.92C235.269 44.9333 234.016 43.5733 233.082 41.84C232.176 40.08 231.722 38.0933 231.722 35.88C231.722 33.6667 232.176 31.7067 233.082 30C234.016 28.2933 235.269 26.9733 236.842 26.04C238.442 25.08 240.202 24.6 242.122 24.6ZM249.762 35.96C249.762 34.44 249.442 33.12 248.802 32C248.189 30.88 247.376 30.0267 246.362 29.44C245.349 28.8533 244.256 28.56 243.082 28.56C241.909 28.56 240.816 28.8533 239.802 29.44C238.789 30 237.962 30.84 237.322 31.96C236.709 33.0533 236.402 34.36 236.402 35.88C236.402 37.4 236.709 38.7333 237.322 39.88C237.962 41.0267 238.789 41.9067 239.802 42.52C240.842 43.1067 241.936 43.4 243.082 43.4C244.256 43.4 245.349 43.1067 246.362 42.52C247.376 41.9333 248.189 41.08 248.802 39.96C249.442 38.8133 249.762 37.48 249.762 35.96ZM280.552 35.44C280.552 36.2667 280.498 37.0133 280.392 37.68H263.552C263.685 39.44 264.338 40.8533 265.512 41.92C266.685 42.9867 268.125 43.52 269.832 43.52C272.285 43.52 274.018 42.4933 275.032 40.44H279.952C279.285 42.4667 278.072 44.1333 276.312 45.44C274.578 46.72 272.418 47.36 269.832 47.36C267.725 47.36 265.832 46.8933 264.152 45.96C262.498 45 261.192 43.6667 260.232 41.96C259.298 40.2267 258.832 38.2267 258.832 35.96C258.832 33.6933 259.285 31.7067 260.192 30C261.125 28.2667 262.418 26.9333 264.072 26C265.752 25.0667 267.672 24.6 269.832 24.6C271.912 24.6 273.765 25.0533 275.392 25.96C277.018 26.8667 278.285 28.1467 279.192 29.8C280.098 31.4267 280.552 33.3067 280.552 35.44ZM275.792 34C275.765 32.32 275.165 30.9733 273.992 29.96C272.818 28.9467 271.365 28.44 269.632 28.44C268.058 28.44 266.712 28.9467 265.592 29.96C264.472 30.9467 263.805 32.2933 263.592 34H275.792ZM321.368 24.6C323.101 24.6 324.648 24.96 326.008 25.68C327.394 26.4 328.474 27.4667 329.248 28.88C330.048 30.2933 330.448 32 330.448 34V47H325.928V34.68C325.928 32.7067 325.434 31.2 324.448 30.16C323.461 29.0933 322.114 28.56 320.408 28.56C318.701 28.56 317.341 29.0933 316.328 30.16C315.341 31.2 314.848 32.7067 314.848 34.68V47H310.328V34.68C310.328 32.7067 309.834 31.2 308.848 30.16C307.861 29.0933 306.514 28.56 304.808 28.56C303.101 28.56 301.741 29.0933 300.728 30.16C299.741 31.2 299.248 32.7067 299.248 34.68V47H294.688V24.96H299.248V27.48C299.994 26.5733 300.941 25.8667 302.088 25.36C303.234 24.8533 304.461 24.6 305.768 24.6C307.528 24.6 309.101 24.9733 310.488 25.72C311.874 26.4667 312.941 27.5467 313.688 28.96C314.354 27.6267 315.394 26.5733 316.808 25.8C318.221 25 319.741 24.6 321.368 24.6ZM356.45 35.44C356.45 36.2667 356.397 37.0133 356.29 37.68H339.45C339.583 39.44 340.237 40.8533 341.41 41.92C342.583 42.9867 344.023 43.52 345.73 43.52C348.183 43.52 349.917 42.4933 350.93 40.44H355.85C355.183 42.4667 353.97 44.1333 352.21 45.44C350.477 46.72 348.317 47.36 345.73 47.36C343.623 47.36 341.73 46.8933 340.05 45.96C338.397 45 337.09 43.6667 336.13 41.96C335.197 40.2267 334.73 38.2267 334.73 35.96C334.73 33.6933 335.183 31.7067 336.09 30C337.023 28.2667 338.317 26.9333 339.97 26C341.65 25.0667 343.57 24.6 345.73 24.6C347.81 24.6 349.663 25.0533 351.29 25.96C352.917 26.8667 354.183 28.1467 355.09 29.8C355.997 31.4267 356.45 33.3067 356.45 35.44ZM351.69 34C351.663 32.32 351.063 30.9733 349.89 29.96C348.717 28.9467 347.263 28.44 345.53 28.44C343.957 28.44 342.61 28.9467 341.49 29.96C340.37 30.9467 339.703 32.2933 339.49 34H351.69Z" class="brand-text"/>
<path d="M286.879 47.28C286.052 47.28 285.359 47 284.799 46.44C284.239 45.88 283.959 45.1867 283.959 44.36C283.959 43.5333 284.239 42.84 284.799 42.28C285.359 41.72 286.052 41.44 286.879 41.44C287.679 41.44 288.359 41.72 288.919 42.28C289.479 42.84 289.759 43.5333 289.759 44.36C289.759 45.1867 289.479 45.88 288.919 46.44C288.359 47 287.679 47.28 286.879 47.28Z" class="brand-color" />
<path d="M33.39 66.78C51.8308 66.78 66.78 51.8308 66.78 33.39C66.78 14.9492 51.8308 0 33.39 0C14.9492 0 0 14.9492 0 33.39C0 51.8308 14.9492 66.78 33.39 66.78Z" class="brand-color"/>
<path d="M43.2 33.29L40.12 31.56C38.47 30.66 37.57 28.41 37.94 26.6L41.62 11.07C42.07 9.27001 41.32 8.82001 39.97 10.09L21.21 27.87C19.86 29.14 20.09 30.95 21.66 31.92L24.74 33.65C26.39 34.55 27.29 36.8 26.92 38.61L23.17 54.14C22.72 55.94 23.47 56.39 24.82 55.12L43.58 37.34C45.01 36.07 44.78 34.26 43.21 33.29H43.2Z" class="brand-text"/>
</svg>
